# xmcd CD database file
#
# Track frame offsets:
#	150
#	15652
#	29382
#	46071
#	65396
#	82413
#	95645
#	113679
#	127374
#	139888
#	153763
#	173517
#	188822
#	207464
#	222461
#
# Disc length: 3157 seconds
#
# Revision: 1
# Processed by: cddbd v1.5.2PL0 Copyright (c) Steve Scherf et al.
# Submitted via: CDex 1.70beta2
#
DISCID=d80c530f
DTITLE=Various Artist - 青春歌年鑑 ’68 BEST 30 Disc 01
DYEAR=1968
DGENRE=歌謡曲
TTITLE0=恋の季節 - ビンキー と キラーズ
TTITLE1=天使の誘惑 - 黛  ジュン
TTITLE2=好きになった人 - 都  はるみ
TTITLE3=新宿そだち - 大木  英夫 and 津山  洋子
TTITLE4=愛の園 - 布施  明
TTITLE5=小さなスナック - パープルシャドウズ
TTITLE6=花の首飾り - ザ･タイガース
TTITLE7=亜麻色の髪の乙女 - ザ・ヴィレッジシンガーズ
TTITLE8=長い髪の少女 - ザ・ゴールデンカップス
TTITLE9=エメラルドの伝説 - ザ･テンプターズ
TTITLE10=年上の女 - 森  進一
TTITLE11=伊勢佐木町ブルース - 青江  美奈
TTITLE12=今は幸せかい - 佐川  満夫
TTITLE13=グッド・ナイト・ベイビー - ザ･キングトーンズ
TTITLE14=ゆうべの秘密 - 小川  知子
EXTD=YEAR: 1968
EXTT0=
EXTT1=
EXTT2=
EXTT3=
EXTT4=
EXTT5=
EXTT6=
EXTT7=
EXTT8=
EXTT9=
EXTT10=
EXTT11=
EXTT12=
EXTT13=
EXTT14=
PLAYORDER=
